<?xml version="1.0" encoding="UTF-8"?>
<svg width="1200pt" height="1200pt" version="1.1" viewBox="0 0 1200 1200" xmlns="http://www.w3.org/2000/svg">
 <g>
  <path d="m648 264c0 26.508-21.492 48-48 48s-48-21.492-48-48 21.492-48 48-48 48 21.492 48 48"/>
  <path d="m840 360c0 26.508-21.492 48-48 48s-48-21.492-48-48 21.492-48 48-48 48 21.492 48 48"/>
  <path d="m456 360c0 26.508-21.492 48-48 48s-48-21.492-48-48 21.492-48 48-48 48 21.492 48 48"/>
  <path d="m552 785.64v198.36h96v-198.36c45.246-11.684 84.68-39.469 110.91-78.145 26.227-38.68 37.449-85.594 31.559-131.95-5.8867-46.359-28.48-88.977-63.547-119.87-35.062-30.891-80.191-47.934-126.92-47.934s-91.859 17.043-126.92 47.934c-35.066 30.895-57.66 73.512-63.547 119.87-5.8906 46.359 5.332 93.273 31.559 131.95 26.23 38.676 65.664 66.461 110.91 78.145zm48-281.64c25.461 0 49.879 10.113 67.883 28.117 18.004 18.004 28.117 42.422 28.117 67.883s-10.113 49.879-28.117 67.883c-18.004 18.004-42.422 28.117-67.883 28.117s-49.879-10.113-67.883-28.117c-18.004-18.004-28.117-42.422-28.117-67.883s10.113-49.879 28.117-67.883c18.004-18.004 42.422-28.117 67.883-28.117z"/>
 </g>
</svg>
