<?xml version="1.0" encoding="UTF-8"?>
<svg width="1200pt" height="1200pt" version="1.1" viewBox="0 0 1200 1200" xmlns="http://www.w3.org/2000/svg">
 <g>
  <path d="m456 888c0 26.508-21.492 48-48 48s-48-21.492-48-48 21.492-48 48-48 48 21.492 48 48"/>
  <path d="m840 888c0 26.508-21.492 48-48 48s-48-21.492-48-48 21.492-48 48-48 48 21.492 48 48"/>
  <path d="m751.2 530.04c-26.016-33.301-62.289-57.09-103.2-67.68v-198.36h-96v198.36c-40.926 10.621-77.203 34.453-103.2 67.801l-153.24-92.039-49.441 82.32 164.28 98.637c-5.8516 36.684-0.94141 74.273 14.137 108.22 15.082 33.945 39.688 62.785 70.828 83.027 31.145 20.246 67.492 31.02 104.64 31.02s73.492-10.773 104.64-31.02c31.141-20.242 55.746-49.082 70.828-83.027 15.078-33.945 19.988-71.535 14.137-108.22l164.28-98.52-49.441-82.32zm-151.2 213.96c-25.461 0-49.879-10.113-67.883-28.117-18.004-18.004-28.117-42.422-28.117-67.883s10.113-49.879 28.117-67.883c18.004-18.004 42.422-28.117 67.883-28.117s49.879 10.113 67.883 28.117c18.004 18.004 28.117 42.422 28.117 67.883s-10.113 49.879-28.117 67.883c-18.004 18.004-42.422 28.117-67.883 28.117z"/>
 </g>
</svg>
