<?xml version="1.0" encoding="UTF-8"?>
<svg width="1200pt" height="1200pt" version="1.1" viewBox="0 0 1200 1200" xmlns="http://www.w3.org/2000/svg">
 <g>
  <path d="m984 936c0 26.508-21.492 48-48 48s-48-21.492-48-48 21.492-48 48-48 48 21.492 48 48"/>
  <path d="m312 264c0 26.508-21.492 48-48 48s-48-21.492-48-48 21.492-48 48-48 48 21.492 48 48"/>
  <path d="m360 648h54.359c8.5938 33.129 25.887 63.355 50.086 87.555 24.199 24.199 54.426 41.492 87.555 50.086v54.359c0 12.73-5.0586 24.938-14.059 33.941-9.0039 9-21.211 14.059-33.941 14.059h-96v96h96c38.191 0 74.816-15.172 101.82-42.176 27.004-27.008 42.176-63.633 42.176-101.82v-54.359c33.129-8.5938 63.355-25.887 87.555-50.086 24.199-24.199 41.492-54.426 50.086-87.555h54.359c12.73 0 24.938 5.0586 33.941 14.059 9 9.0039 14.059 21.211 14.059 33.941v96h96v-96c0-38.191-15.172-74.816-42.176-101.82-27.008-27.004-63.633-42.176-101.82-42.176h-54.238c-8.293-33.309-25.492-63.727-49.766-87.996-24.27-24.273-54.688-41.473-87.996-49.766v-54.238c0-12.73 5.0586-24.938 14.059-33.941 9.0039-9 21.211-14.059 33.941-14.059h96v-96h-96c-38.191 0-74.816 15.172-101.82 42.176-27.004 27.008-42.176 63.633-42.176 101.82v54.359c-33.129 8.5938-63.355 25.887-87.555 50.086-24.199 24.199-41.492 54.426-50.086 87.555h-54.359c-12.73 0-24.938-5.0586-33.941-14.059-9-9.0039-14.059-21.211-14.059-33.941v-96h-96v96c0 38.191 15.172 74.816 42.176 101.82 27.008 27.004 63.633 42.176 101.82 42.176zm240-144c25.461 0 49.879 10.113 67.883 28.117 18.004 18.004 28.117 42.422 28.117 67.883s-10.113 49.879-28.117 67.883c-18.004 18.004-42.422 28.117-67.883 28.117s-49.879-10.113-67.883-28.117c-18.004-18.004-28.117-42.422-28.117-67.883s10.113-49.879 28.117-67.883c18.004-18.004 42.422-28.117 67.883-28.117z"/>
  <path d="m984 264c0 26.508-21.492 48-48 48s-48-21.492-48-48 21.492-48 48-48 48 21.492 48 48"/>
  <path d="m312 936c0 26.508-21.492 48-48 48s-48-21.492-48-48 21.492-48 48-48 48 21.492 48 48"/>
 </g>
</svg>
