<?xml version="1.0" encoding="UTF-8"?>
<svg width="1200pt" height="1200pt" version="1.1" viewBox="0 0 1200 1200" xmlns="http://www.w3.org/2000/svg">
 <g>
  <path d="m648 264c0 26.508-21.492 48-48 48s-48-21.492-48-48 21.492-48 48-48 48 21.492 48 48"/>
  <path d="m936 792c0 26.508-21.492 48-48 48s-48-21.492-48-48 21.492-48 48-48 48 21.492 48 48"/>
  <path d="m360 792c0 26.508-21.492 48-48 48s-48-21.492-48-48 21.492-48 48-48 48 21.492 48 48"/>
  <path d="m408 600c0.03125 42.543 14.191 83.867 40.254 117.49 26.062 33.621 62.555 57.637 103.75 68.273v198.24h96v-198.36c35.223-8.9961 67.152-27.84 92.051-54.324 24.895-26.488 41.73-59.523 48.531-95.234 6.7969-35.711 3.2812-72.617-10.141-106.4l175.32-105.24-49.441-82.32-182.52 109.56c-34.336-28.18-77.383-43.578-121.8-43.578s-87.465 15.398-121.8 43.578l-182.64-109.56-49.441 82.32 175.32 105.24h0.003906c-8.8828 22.383-13.441 46.242-13.441 70.32zm192-96c25.461 0 49.879 10.113 67.883 28.117 18.004 18.004 28.117 42.422 28.117 67.883s-10.113 49.879-28.117 67.883c-18.004 18.004-42.422 28.117-67.883 28.117s-49.879-10.113-67.883-28.117c-18.004-18.004-28.117-42.422-28.117-67.883s10.113-49.879 28.117-67.883c18.004-18.004 42.422-28.117 67.883-28.117z"/>
 </g>
</svg>
